<?xml version="1.0" standalone="no"?><svg xmlns="http://www.w3.org/2000/svg" viewBox="0 0 1440 320"><path fill="#2C3E50" fill-opacity="1" d="M0,32L20,48C40,64,80,96,120,128C160,160,200,192,240,218.7C280,245,320,267,360,272C400,277,440,267,480,245.3C520,224,560,192,600,160C640,128,680,96,720,112C760,128,800,192,840,202.7C880,213,920,171,960,170.7C1000,171,1040,213,1080,192C1120,171,1160,85,1200,85.3C1240,85,1280,171,1320,218.7C1360,267,1400,277,1420,282.7L1440,288L1440,320L1420,320C1400,320,1360,320,1320,320C1280,320,1240,320,1200,320C1160,320,1120,320,1080,320C1040,320,1000,320,960,320C920,320,880,320,840,320C800,320,760,320,720,320C680,320,640,320,600,320C560,320,520,320,480,320C440,320,400,320,360,320C320,320,280,320,240,320C200,320,160,320,120,320C80,320,40,320,20,320L0,320Z"></path></svg>